<?xml version="1.0" standalone="no"?>
<!DOCTYPE svg PUBLIC "-//W3C//DTD SVG 20010904//EN"
 "http://www.w3.org/TR/2001/REC-SVG-20010904/DTD/svg10.dtd">
<svg version="1.0" xmlns="http://www.w3.org/2000/svg"
 width="1125.000000pt" height="1280.000000pt" viewBox="0 0 1125.000000 1280.000000"
 preserveAspectRatio="xMidYMid meet">
<metadata>
Created by potrace 1.15, written by Peter Selinger 2001-2017
</metadata>
<g transform="translate(0.000000,1280.000000) scale(0.100000,-0.100000)"
fill="#000000" stroke="none">
<path d="M6650 12784 c0 -2 22 -34 49 -71 59 -83 76 -126 92 -233 26 -178 -12
-393 -80 -454 l-21 -19 29 -36 c15 -20 36 -51 45 -69 23 -45 46 -169 46 -248
0 -64 0 -64 -40 -89 -23 -14 -38 -30 -35 -35 5 -8 -33 -81 -97 -182 -18 -28
-35 -45 -42 -42 -17 7 -37 -48 -25 -67 16 -25 11 -52 -9 -47 -13 4 -22 -3 -29
-21 -17 -40 -21 -80 -10 -84 6 -2 3 -6 -7 -10 -10 -4 -15 -3 -11 3 19 32 -26
-3 -132 -100 -70 -63 -147 -145 -184 -195 -35 -47 -68 -85 -74 -85 -6 0 -18
58 -28 138 -29 222 -83 450 -158 675 -106 319 -222 529 -366 669 -76 73 -121
99 -210 122 -121 32 -209 14 -280 -56 -64 -63 -51 -81 21 -32 47 32 93 46 128
38 20 -4 33 -18 50 -54 14 -30 30 -50 43 -52 11 -2 21 -12 23 -23 2 -11 10
-25 18 -31 11 -9 12 -20 3 -60 -17 -76 -22 -181 -11 -214 7 -18 7 -40 2 -57
-18 -58 -34 -118 -35 -130 0 -7 -6 -18 -13 -25 -6 -6 -12 -19 -12 -28 0 -9 -7
-25 -15 -36 -17 -22 -20 -64 -5 -64 6 0 -1 -19 -15 -42 -13 -24 -29 -53 -35
-65 -5 -13 -15 -23 -21 -23 -6 0 -9 -6 -6 -14 8 -21 -59 -64 -135 -84 -73 -21
-141 -57 -177 -96 -37 -39 -18 -43 46 -8 32 17 75 33 95 37 34 6 40 4 82 -39
32 -31 46 -54 46 -72 0 -15 7 -35 16 -45 21 -23 33 -76 40 -180 5 -80 4 -91
-21 -143 -14 -31 -23 -61 -20 -67 4 -5 -1 -19 -10 -29 -13 -15 -16 -31 -13
-64 5 -40 3 -46 -16 -52 -27 -8 -67 -44 -60 -55 7 -11 -18 -49 -33 -49 -6 0
-13 -10 -15 -22 -2 -17 -13 -24 -58 -33 -30 -6 -78 -23 -107 -39 -59 -32 -133
-100 -133 -121 0 -21 4 -19 59 20 89 64 143 76 156 35 3 -10 18 -23 33 -28 15
-6 42 -24 60 -42 17 -17 37 -28 43 -24 7 4 9 -8 4 -37 -6 -44 10 -89 22 -61 2
6 11 12 19 12 12 0 13 -8 8 -37 -4 -21 -11 -46 -15 -55 -12 -23 -11 -65 2 -74
6 -3 8 -17 5 -30 -5 -17 -2 -24 8 -24 26 0 37 -24 23 -53 -6 -15 -18 -27 -24
-27 -19 0 -16 -17 4 -29 17 -9 16 -11 -3 -33 -35 -37 -39 -82 -13 -117 16 -22
19 -34 12 -43 -6 -7 -17 -33 -24 -58 -7 -25 -19 -54 -26 -65 -7 -11 -13 -26
-13 -35 -1 -8 -9 -33 -20 -55 -11 -22 -19 -45 -20 -52 0 -7 -7 -16 -17 -21
-10 -6 -14 -16 -10 -26 10 -24 -4 -76 -19 -76 -8 0 -14 -5 -14 -11 0 -5 -27
-38 -61 -71 -54 -55 -119 -138 -119 -152 0 -17 30 -2 60 29 28 29 60 46 60 31
0 -1 -22 -50 -49 -107 -27 -57 -75 -176 -106 -264 -77 -212 -113 -290 -240
-507 -209 -357 -245 -410 -287 -426 -30 -12 -37 -19 -32 -34 3 -11 -12 -54
-40 -111 -48 -97 -86 -238 -106 -392 -5 -44 -11 -84 -11 -90 -1 -5 2 -83 6
-171 7 -159 7 -162 -14 -169 -11 -3 -21 -11 -21 -16 0 -6 -9 -8 -20 -4 -26 8
-68 -14 -49 -26 11 -6 11 -13 3 -26 -14 -23 -26 -21 -40 7 -7 13 -14 18 -18
11 -11 -16 -26 -13 -26 5 0 13 -3 14 -15 4 -13 -11 -10 -17 23 -47 35 -32 45
-34 85 -18 12 5 17 2 17 -9 0 -11 9 -16 26 -16 30 0 28 -14 -12 -83 -13 -23
-24 -50 -24 -60 0 -10 -7 -28 -15 -40 -21 -33 -4 -84 47 -141 36 -41 39 -49
26 -62 -11 -12 -20 -12 -46 -3 -18 6 -48 9 -67 7 -41 -5 -44 4 -10 38 14 14
25 34 25 44 0 21 -15 27 -25 10 -4 -6 -11 -8 -16 -5 -5 4 -9 -8 -9 -24 0 -17
-4 -31 -9 -31 -5 0 -16 -3 -25 -6 -11 -4 -17 4 -22 31 -3 20 -13 39 -21 42 -8
3 -12 12 -9 19 3 8 0 11 -10 7 -13 -5 -21 -25 -25 -63 -3 -29 1 -38 21 -43 12
-3 20 -14 20 -27 0 -15 -5 -20 -14 -17 -7 3 -19 0 -25 -6 -17 -17 -21 -6 -28
82 -4 54 -2 81 5 81 16 0 8 27 -16 55 -13 15 -17 25 -9 25 6 0 13 11 13 24 1
18 -4 25 -22 29 -18 3 -25 -2 -35 -26 -12 -27 -11 -32 9 -45 25 -17 29 -37 7
-46 -8 -3 -15 -18 -15 -33 0 -21 3 -24 12 -15 16 16 28 15 28 -2 0 -8 -16 -31
-35 -52 -40 -42 -43 -56 -15 -84 11 -11 20 -24 20 -29 0 -12 -44 -23 -48 -12
-1 4 -9 16 -16 26 -12 17 -15 17 -36 2 l-24 -16 38 -16 c31 -13 36 -18 26 -30
-15 -18 -56 -20 -66 -4 -3 6 -1 15 6 19 9 6 7 11 -9 19 -11 7 -21 18 -21 26 0
8 -7 15 -15 15 -8 0 -15 -5 -15 -12 0 -9 -3 -9 -12 0 -7 7 -22 12 -34 12 -17
0 -20 -5 -16 -25 4 -23 2 -25 -27 -19 -21 4 -31 3 -31 -5 0 -7 -6 -11 -12 -10
-22 4 -66 -23 -71 -42 -3 -12 2 -23 14 -29 22 -12 25 -30 6 -30 -7 0 -43 -32
-80 -70 -62 -66 -86 -84 -79 -57 2 6 -4 17 -13 23 -9 7 -17 26 -17 43 -1 29
-13 34 -48 21 -3 -2 -8 -2 -12 -1 -5 0 -8 -3 -8 -9 0 -5 -4 -10 -10 -10 -5 0
-10 7 -10 16 0 23 -47 10 -74 -20 -12 -13 -29 -26 -38 -29 -10 -4 -18 -12 -18
-18 0 -7 -8 -18 -17 -25 -10 -7 -18 -20 -18 -29 0 -11 -13 -22 -35 -29 -24 -8
-36 -18 -38 -33 -2 -13 -5 -23 -7 -23 -8 0 -55 51 -55 60 0 6 -8 10 -17 10
-13 0 -14 3 -5 12 28 28 3 37 -43 16 -14 -6 -25 -20 -25 -31 0 -15 -5 -18 -23
-13 -19 4 -26 0 -36 -21 -10 -22 -10 -28 2 -35 12 -6 10 -14 -14 -40 l-30 -31
-35 16 c-52 25 -60 22 -61 -24 -2 -38 0 -41 21 -35 21 5 25 2 29 -27 3 -17 7
-41 9 -52 2 -15 -2 -20 -19 -19 -15 0 -23 -5 -23 -17 0 -19 34 -31 48 -17 15
15 23 -7 13 -34 -5 -15 -18 -24 -32 -25 -13 -1 -33 -4 -45 -7 -15 -4 -25 1
-34 20 -8 14 -19 22 -28 19 -7 -3 -20 -5 -28 -5 -8 0 -13 -6 -12 -12 4 -16
-49 -23 -65 -9 -7 5 -19 6 -26 2 -7 -5 -21 -6 -31 -4 -12 3 -19 -3 -23 -18 -6
-22 -7 -22 -26 -5 -19 17 -21 17 -27 2 -4 -10 -13 -14 -24 -11 -11 3 -20 -1
-24 -10 -3 -9 -11 -13 -17 -10 -8 5 -8 10 0 18 6 6 11 17 11 24 0 20 -21 15
-27 -6 -4 -17 -8 -18 -27 -8 -31 18 -37 29 -32 59 3 15 1 30 -3 33 -13 8 -63
-13 -57 -24 3 -5 -14 -6 -38 -4 -40 5 -43 4 -41 -18 1 -13 7 -25 13 -25 23 -3
24 -4 13 -18 -7 -8 -9 -25 -6 -38 4 -17 0 -29 -15 -43 -20 -18 -21 -18 -34 0
-12 17 -14 16 -29 -16 -8 -19 -18 -44 -22 -56 -4 -16 -14 -23 -31 -23 -15 0
-24 -6 -24 -15 0 -8 -4 -15 -10 -15 -5 0 -10 -9 -10 -19 0 -11 -5 -23 -11 -27
-8 -4 -7 -9 2 -15 11 -7 9 -12 -8 -24 -26 -18 -30 -35 -8 -35 8 0 15 7 15 16
0 26 23 10 32 -21 5 -21 4 -32 -7 -37 -8 -5 -20 -15 -28 -23 -17 -16 -27 -10
-27 16 0 26 -69 39 -82 15 -5 -9 -17 -16 -27 -16 -23 0 -22 -47 2 -84 15 -22
15 -25 1 -30 -22 -8 -21 -9 -28 18 -5 20 -13 25 -43 28 -33 3 -38 7 -47 38
-11 40 -37 65 -48 47 -4 -6 -3 -14 1 -17 10 -6 9 -110 -1 -110 -5 0 -8 7 -8
15 0 36 -41 12 -83 -50 -15 -21 -22 -24 -33 -14 -11 9 -14 7 -14 -12 -1 -17
-10 -28 -34 -39 -40 -19 -54 -16 -66 16 -8 21 -27 30 -54 25 -5 -1 -17 6 -27
15 -19 17 -27 7 -10 -12 18 -19 20 -94 3 -110 -12 -13 -13 -19 -3 -33 6 -9 14
-23 17 -33 3 -9 14 -18 25 -21 21 -6 26 -27 6 -27 -7 0 -18 -9 -25 -20 -13
-21 -42 -28 -42 -10 0 6 7 25 16 42 15 29 15 30 -1 24 -9 -3 -21 -6 -26 -6 -5
0 -9 -6 -9 -14 0 -8 -9 -18 -20 -21 -24 -8 -26 -23 -4 -32 8 -3 13 -12 10 -19
-6 -16 15 -19 30 -4 14 14 34 -3 40 -34 4 -25 2 -28 -18 -23 -13 3 -38 -2 -58
-14 -35 -19 -35 -19 -5 -13 36 8 37 9 -47 -54 -64 -49 -68 -50 -68 -27 0 13
-8 29 -18 34 -13 8 -14 10 -2 11 13 0 13 1 0 10 -8 5 -23 7 -32 4 -12 -3 -18
0 -18 10 0 19 -4 20 -31 4 -17 -10 -23 -10 -26 0 -7 17 -43 15 -43 -3 0 -17
-9 -19 -44 -5 -20 7 -26 6 -31 -9 -3 -11 -19 -21 -36 -25 -25 -5 -30 -10 -27
-28 2 -16 11 -24 29 -26 36 -4 56 -63 29 -87 -15 -14 -19 -14 -29 -1 -7 8 -9
21 -5 27 5 9 2 10 -12 4 -10 -4 -32 -8 -49 -9 -24 -1 -30 -6 -31 -24 -1 -12
-10 -32 -20 -45 l-19 -22 25 21 c22 18 73 44 85 44 17 0 -1 -29 -29 -47 -21
-14 -37 -33 -41 -52 -5 -24 -21 -39 -83 -75 -42 -25 -79 -42 -82 -38 -11 14
-123 13 -175 -3 -88 -25 -155 -109 -155 -194 0 -44 32 -116 68 -154 119 -127
353 -98 418 50 8 18 14 45 14 61 0 24 9 35 55 66 45 30 64 36 106 36 42 0 58
6 89 30 21 17 44 30 50 30 26 0 97 69 103 99 6 29 66 81 94 81 7 0 13 3 13 8
0 4 17 16 38 27 20 10 69 40 107 65 39 26 104 64 145 86 41 21 80 44 87 51 14
12 56 6 48 -7 -3 -5 -1 -11 4 -14 4 -3 0 -29 -9 -58 -10 -29 -16 -56 -13 -60
8 -14 33 -8 33 7 0 8 5 15 10 15 6 0 10 -7 10 -16 0 -13 3 -14 14 -5 10 9 15
8 20 -4 11 -29 28 -16 24 17 -3 20 0 38 8 46 8 7 14 22 14 32 0 10 7 21 16 24
9 4 14 13 10 21 -7 19 3 19 23 1 9 -8 21 -12 26 -8 17 12 35 51 26 56 -11 7
-2 56 10 56 5 0 9 -11 9 -25 0 -18 7 -28 25 -35 13 -5 27 -20 31 -34 4 -17 11
-22 25 -19 14 4 16 9 10 17 -11 14 -3 56 10 56 5 0 9 -4 9 -10 0 -5 4 -10 9
-10 16 0 18 34 3 52 -10 12 -12 22 -5 30 6 7 13 25 17 40 9 39 39 51 108 45
32 -3 58 -4 58 -3 0 2 -5 17 -11 35 -10 28 -9 34 7 46 16 12 17 16 5 24 -16
10 -7 46 9 36 6 -4 8 -10 5 -14 -2 -5 6 -13 19 -19 36 -16 94 6 98 37 2 16 15
31 38 43 19 11 43 28 52 39 13 15 22 18 34 11 10 -5 30 -6 45 -2 17 5 31 4 38
-3 8 -8 11 -8 11 1 0 13 59 47 77 44 16 -3 27 38 14 51 -16 16 -14 30 4 24 8
-4 17 -2 20 3 4 6 15 10 27 10 18 0 19 4 14 34 -6 31 -5 34 15 29 11 -3 24
-14 27 -24 6 -14 10 -15 24 -5 26 19 31 58 11 82 -25 31 -57 38 -77 18 -10 -9
-20 -13 -24 -9 -4 4 4 16 18 27 20 16 34 19 74 14 27 -3 51 -8 54 -10 2 -3 0
-18 -6 -34 -6 -17 -6 -35 -1 -43 5 -8 9 -25 9 -38 0 -13 3 -21 7 -18 3 4 12 2
18 -3 7 -6 20 -7 29 -4 13 5 14 9 5 20 -6 8 -18 14 -25 14 -8 0 -14 6 -14 14
0 16 34 31 50 21 6 -3 21 2 35 13 18 14 21 22 12 31 -6 6 -18 11 -27 11 -8 0
-30 14 -49 30 l-34 30 23 22 c16 15 25 18 28 10 2 -8 9 -9 20 -3 9 4 34 11 55
15 33 6 37 5 37 -14 0 -16 -6 -20 -31 -20 -20 0 -29 -4 -26 -12 4 -14 8 -14
70 -3 42 7 45 14 17 40 -28 26 -26 59 6 74 22 10 28 9 40 -6 7 -10 14 -22 14
-28 1 -27 17 -36 44 -25 33 12 52 4 35 -16 -8 -10 -8 -14 0 -14 13 0 38 37 46
70 10 41 32 65 48 52 10 -9 16 -9 25 0 8 8 13 7 18 -5 3 -9 11 -17 17 -17 5 0
3 8 -7 19 -23 25 -12 45 41 81 33 21 53 28 71 23 21 -5 23 -3 18 14 -8 27 13
37 80 37 44 1 50 -1 46 -16 -3 -13 2 -18 17 -18 28 0 27 15 -4 46 -31 30 -31
36 -3 60 12 10 18 13 14 7 -4 -8 -1 -13 8 -13 9 0 16 -7 16 -15 0 -8 5 -15 10
-15 6 0 10 5 10 10 0 6 6 10 14 10 18 0 27 23 15 41 -16 26 -9 34 10 12 20
-24 46 -30 56 -13 10 17 25 11 25 -10 0 -18 20 -30 20 -12 0 4 9 18 19 32 16
20 21 22 35 11 11 -9 16 -10 16 -2 0 6 8 11 18 11 21 0 58 -53 67 -97 7 -34
-2 -42 -24 -20 -10 10 -12 7 -9 -12 2 -19 10 -25 35 -27 22 -3 32 0 30 9 -1 7
8 11 23 10 14 -1 19 0 13 3 -7 3 -13 12 -13 19 0 7 -10 15 -22 18 -12 4 -19 9
-15 13 3 4 2 14 -3 23 -5 10 -5 23 0 31 6 10 14 7 32 -15 17 -20 27 -25 32
-16 5 7 -5 24 -24 41 -25 23 -28 30 -14 30 9 0 26 -8 36 -17 14 -13 21 -14 30
-5 7 7 22 12 34 12 13 0 21 5 20 13 -5 23 -19 52 -38 76 -27 35 -7 49 30 22
18 -13 37 -18 47 -15 14 6 16 3 10 -14 -3 -13 -2 -22 4 -22 5 0 11 15 13 33 3
28 6 32 28 29 14 -1 26 -6 28 -11 1 -4 14 -6 27 -3 20 3 25 10 25 33 0 26 -3
29 -24 23 -18 -4 -25 -1 -28 12 -3 16 -5 16 -18 2 -23 -22 -48 -19 -42 6 7 32
43 66 69 66 39 0 92 27 102 52 5 13 17 55 27 93 l19 70 50 6 c48 6 124 33 135
48 3 4 24 18 48 31 24 14 45 34 48 46 3 12 17 32 30 45 34 32 31 64 -6 79 -16
7 -30 18 -30 24 0 12 76 37 85 28 3 -3 5 -27 5 -54 0 -39 5 -54 25 -74 14 -14
31 -24 37 -22 7 3 20 31 30 64 17 53 18 82 6 149 -2 14 3 20 17 20 18 0 21
-11 31 -135 7 -74 17 -164 23 -200 16 -93 14 -231 -4 -273 -8 -19 -38 -63 -68
-98 -29 -35 -71 -92 -93 -126 -21 -35 -45 -63 -51 -63 -7 0 -13 -7 -13 -16 0
-9 -21 -48 -47 -87 -27 -38 -52 -77 -58 -86 -5 -9 -23 -36 -40 -61 -16 -25
-45 -79 -63 -120 -70 -156 -120 -277 -145 -345 -14 -38 -67 -173 -117 -300
-92 -230 -140 -355 -164 -430 -53 -160 -117 -302 -193 -428 -52 -86 -54 -93
-77 -235 -13 -81 -27 -171 -31 -201 -10 -83 -54 -248 -88 -326 -16 -38 -61
-140 -100 -225 -38 -85 -91 -204 -117 -265 -88 -202 -338 -700 -364 -724 -20
-19 -26 -34 -26 -67 0 -24 -5 -46 -11 -49 -5 -4 -21 -32 -35 -63 -16 -38 -44
-75 -83 -112 -48 -45 -60 -63 -66 -97 -7 -45 -68 -144 -103 -169 -12 -8 -18
-21 -15 -32 7 -29 -49 -126 -151 -263 -107 -143 -125 -161 -187 -188 -72 -32
-440 -94 -513 -86 -37 4 -73 2 -90 -4 -27 -11 -28 -14 -23 -54 8 -58 40 -84
175 -140 154 -65 207 -77 337 -77 168 0 240 21 468 138 132 68 238 114 337
147 193 64 309 123 382 195 74 71 75 91 12 230 -45 99 -46 104 -33 144 7 22
20 50 30 61 9 11 19 34 22 51 6 39 33 81 57 89 12 4 22 23 30 54 7 30 40 91
87 162 42 63 98 152 126 199 62 104 170 252 252 345 186 210 259 346 335 620
22 77 46 160 55 185 9 24 15 63 14 86 -2 23 4 50 13 62 12 18 13 30 5 62 -10
35 -9 42 12 64 17 18 25 42 30 88 8 71 14 84 85 186 28 39 76 108 106 152 30
43 79 107 108 142 268 321 320 385 395 483 114 151 208 265 218 265 5 0 9 5 9
12 0 15 181 191 188 183 4 -3 10 -112 14 -241 4 -129 9 -238 12 -242 3 -5 6
-220 7 -478 1 -329 6 -494 15 -554 7 -47 13 -104 14 -128 0 -23 8 -59 19 -80
10 -20 35 -85 54 -143 19 -58 47 -122 60 -142 40 -59 109 -291 132 -447 4 -25
20 -103 35 -175 16 -71 31 -155 35 -185 3 -30 14 -91 22 -135 13 -62 17 -157
19 -428 1 -192 5 -351 8 -355 3 -3 6 -39 6 -81 0 -59 -5 -83 -20 -106 -11 -16
-20 -41 -20 -55 0 -28 -34 -90 -50 -90 -5 0 -10 -6 -10 -14 0 -18 -95 -104
-205 -186 -117 -88 -199 -125 -345 -155 -115 -24 -131 -25 -201 -14 -89 14
-126 7 -141 -26 -17 -38 5 -69 92 -126 143 -95 204 -119 325 -130 199 -19 392
11 561 85 44 19 126 46 184 60 264 65 343 99 355 154 4 23 18 397 17 497 0 40
-9 149 -17 206 -5 36 -3 53 10 73 15 23 16 30 3 68 -19 56 -15 236 12 543 42
483 18 702 -111 1017 -28 68 -55 143 -60 167 -5 25 -17 53 -26 63 -9 10 -23
36 -31 56 -8 20 -23 62 -35 92 -18 48 -21 76 -21 220 0 152 3 180 38 350 21
102 42 217 47 255 6 39 19 113 30 165 11 52 26 133 34 180 12 70 45 238 60
300 17 72 66 297 75 345 13 67 16 84 25 168 9 71 25 85 25 20 0 -80 28 -314
50 -424 68 -342 245 -647 452 -785 73 -49 201 -108 220 -102 6 2 -41 39 -105
81 -129 86 -187 147 -242 257 -49 96 -68 179 -63 277 3 87 21 126 67 149 12 6
24 13 27 16 2 3 -27 24 -66 47 -116 69 -200 186 -252 351 -21 68 -23 92 -22
265 1 135 6 209 17 255 9 36 23 126 31 200 17 140 61 349 97 457 20 60 22 63
47 57 37 -9 62 -23 62 -34 0 -6 3 -9 8 -8 4 1 19 -2 34 -6 19 -6 28 -16 32
-41 4 -18 13 -38 21 -45 8 -7 15 -21 15 -31 0 -10 5 -21 11 -24 6 -4 8 -13 5
-21 -3 -7 -1 -16 5 -20 6 -3 8 -11 6 -17 -5 -16 54 -36 71 -24 6 5 12 15 12
22 0 7 6 18 13 24 8 6 19 28 25 49 7 21 23 52 38 68 14 16 37 44 51 61 14 18
29 31 33 28 4 -2 10 -46 14 -97 8 -115 41 -314 65 -399 43 -152 138 -330 237
-446 67 -78 206 -183 242 -183 6 0 -36 46 -92 103 -76 76 -111 119 -135 167
-84 174 -82 347 6 381 27 10 26 10 -39 50 -98 58 -171 157 -213 289 -15 46
-19 100 -21 330 -3 280 -18 460 -53 643 -15 83 -16 100 -4 116 7 11 12 26 11
33 -2 7 3 12 10 10 14 -2 112 46 127 64 36 42 94 32 93 -17 -1 -18 8 -38 25
-55 18 -18 27 -38 28 -63 3 -64 4 -69 12 -77 4 -4 7 -19 7 -33 0 -15 8 -37 18
-51 9 -13 28 -46 42 -74 26 -53 93 -110 119 -101 7 3 20 0 27 -6 11 -9 14 -8
15 5 2 24 4 29 17 54 17 30 27 28 80 -19 85 -75 168 -98 224 -61 27 18 50 45
154 180 31 39 61 72 66 72 6 0 30 -20 53 -44 38 -38 44 -50 50 -105 4 -33 11
-61 16 -61 14 0 10 146 -6 225 -11 57 -11 75 -1 96 11 22 11 28 -3 36 -14 9
-14 13 -1 37 11 21 20 26 37 23 20 -4 23 0 22 22 -1 14 5 44 13 66 l15 39 18
-29 c34 -54 129 -145 152 -145 35 0 38 34 9 90 -14 27 -26 54 -26 60 0 5 21
-7 48 -27 26 -20 68 -46 93 -57 25 -12 64 -36 87 -54 23 -18 57 -36 77 -39
l36 -6 -6 34 c-7 41 -54 92 -153 166 -40 30 -70 58 -67 63 3 5 27 0 53 -11 26
-12 85 -24 132 -29 47 -5 93 -11 102 -15 26 -10 57 11 51 35 -6 24 -58 58
-103 67 -51 10 -137 56 -161 87 -11 14 -34 33 -50 41 -38 20 -40 55 -2 55 25
0 26 1 8 20 -13 14 -15 23 -7 32 6 7 11 18 11 23 1 20 39 15 67 -8 25 -21 31
-23 43 -10 8 9 22 12 38 8 40 -10 62 3 69 41 3 19 12 34 20 34 8 0 14 9 14 20
0 11 4 20 8 20 14 0 42 -35 42 -53 0 -40 65 -43 93 -5 27 36 50 37 41 3 -6
-23 -4 -25 23 -19 21 4 32 2 36 -9 3 -8 21 -17 41 -21 19 -4 58 -22 87 -41 28
-20 63 -38 78 -41 79 -17 117 -62 179 -209 18 -44 37 -89 42 -100 7 -16 9 -11
9 21 2 95 -79 280 -171 394 -47 59 -49 64 -32 77 14 10 15 16 6 25 -17 17 -15
59 5 73 13 10 14 17 5 45 -7 18 -18 38 -26 44 -8 6 -16 20 -18 31 -2 16 2 19
20 18 12 -2 22 1 22 6 0 5 12 12 26 15 24 6 26 11 21 41 -5 32 -4 35 20 35 23
0 25 3 21 31 -3 20 0 33 9 36 7 3 13 13 13 22 0 16 86 69 104 63 6 -2 15 4 22
12 6 9 32 18 60 21 27 3 60 8 74 11 14 2 45 -2 69 -11 41 -14 46 -14 63 2 17
15 21 15 56 -2 20 -11 44 -19 52 -20 8 0 26 -6 39 -14 13 -7 34 -14 48 -16 46
-5 134 -115 199 -247 43 -89 53 -74 22 32 -16 55 -84 180 -127 235 -40 50 -72
109 -97 175 -17 43 -17 40 1 40 12 0 14 4 7 17 -11 18 -4 93 9 108 5 5 9 23 9
40 1 25 2 27 11 12 10 -16 11 -16 34 0 14 10 25 25 25 33 0 9 7 26 16 38 9 13
14 32 11 43 -3 10 -1 22 4 25 5 3 9 -1 10 -8 0 -13 5 -5 31 60 7 17 20 32 29
32 10 0 19 11 23 30 5 27 9 30 31 24 26 -6 155 41 155 58 0 4 7 8 15 8 8 0 15
9 15 20 0 13 10 24 25 30 15 6 25 17 25 30 0 24 18 26 35 4 7 -11 28 -17 59
-18 34 -1 53 -7 65 -21 9 -11 29 -20 46 -21 17 -1 56 -4 89 -8 55 -7 62 -11
130 -79 67 -67 87 -97 131 -202 10 -23 19 -34 22 -27 10 26 -19 137 -50 197
-68 129 -317 337 -517 432 -175 83 -485 168 -720 198 -328 41 -819 24 -1145
-41 -456 -89 -1076 -328 -1587 -611 l-257 -142 -61 24 c-100 39 -200 87 -200
96 0 13 75 58 190 113 127 60 190 105 264 188 109 121 183 237 261 408 102
221 194 382 334 580 227 323 433 542 578 618 153 79 270 96 411 59 l94 -25 -8
27 c-12 42 -5 91 17 127 33 55 126 132 202 169 155 74 277 83 470 36 64 -15
117 -25 117 -21 0 4 -24 19 -53 33 -208 98 -434 100 -723 6 -189 -62 -381
-179 -606 -368 -289 -243 -609 -676 -779 -1055 -155 -344 -205 -432 -330 -569
-72 -80 -147 -133 -267 -189 -48 -23 -117 -59 -154 -80 l-66 -39 -39 24 c-21
13 -46 33 -56 44 -17 20 -17 21 14 27 18 3 47 22 68 45 20 21 74 71 121 112
47 40 91 81 98 91 15 20 37 25 27 6 -7 -14 13 10 32 39 7 10 2 -8 -12 -41 -14
-32 -25 -61 -25 -65 0 -9 52 70 54 82 4 28 29 76 37 71 5 -3 6 3 2 12 -5 13
-3 15 7 9 9 -5 11 -4 6 3 -4 6 0 24 9 39 15 27 15 27 9 3 l-6 -25 17 22 c28
39 62 125 78 198 15 69 33 218 28 242 -1 7 8 33 19 58 12 26 18 55 15 66 -5
16 -2 19 25 19 31 0 32 1 26 38 -19 124 -19 132 -3 132 28 0 29 19 3 63 -15
24 -26 51 -26 60 0 10 -7 17 -15 17 -10 0 -14 10 -13 33 1 18 -5 44 -12 57 -8
14 -13 35 -11 46 1 14 -5 23 -18 27 -14 3 -18 10 -14 26 4 15 -4 34 -25 60
-17 21 -34 50 -37 64 -4 14 -13 28 -21 31 -27 10 -13 285 14 294 6 2 8 10 6
17 -7 18 29 129 57 174 16 26 23 31 29 20 7 -11 10 -11 15 3 11 27 8 80 -9
163 -9 46 -13 99 -10 125 6 45 5 45 -45 83 -29 21 -56 35 -61 32 -16 -10 -80
15 -80 31 0 7 -13 20 -28 28 l-28 14 14 124 c21 199 19 500 -6 638 -36 200
-82 305 -160 370 -31 25 -72 45 -72 34z m270 -1389 c0 -8 -9 -15 -20 -15 -21
0 -28 -26 -9 -32 17 -6 2 -40 -27 -61 -32 -24 -38 -18 -29 31 5 30 15 46 43
66 43 31 42 30 42 11z m-185 -195 c-3 -5 -11 -10 -16 -10 -6 0 -7 5 -4 10 3 6
11 10 16 10 6 0 7 -4 4 -10z m347 -744 c2 -19 0 -32 -4 -30 -8 5 -12 64 -4 64
2 0 6 -15 8 -34z m-32 3 c7 -11 9 -23 6 -26 -3 -3 2 -12 12 -19 9 -7 13 -13 7
-14 -20 0 -55 44 -55 70 0 17 19 11 30 -11z m39 -87 c5 -10 6 -24 1 -31 -6
-11 -10 -9 -19 7 -6 11 -11 25 -11 31 0 17 18 13 29 -7z m48 -97 c9 -25 -4
-29 -17 -6 -7 15 -7 21 0 21 6 0 13 -7 17 -15z m3 -249 c0 -8 -4 -18 -10 -21
-5 -3 -10 3 -10 14 0 12 5 21 10 21 6 0 10 -6 10 -14z m40 -17 c0 -5 -7 -9
-15 -9 -9 0 -12 6 -9 15 6 15 24 11 24 -6z m1905 -2189 c3 -5 2 -10 -4 -10 -5
0 -13 5 -16 10 -3 6 -2 10 4 10 5 0 13 -4 16 -10z m-4475 -455 c0 -19 -4 -36
-9 -39 -5 -3 -7 -15 -4 -26 4 -14 -1 -21 -21 -26 -23 -5 -32 -21 -27 -48 1 -6
5 -23 8 -38 5 -24 2 -30 -14 -34 -23 -6 -21 -35 3 -55 12 -9 17 -8 28 6 7 10
18 15 24 11 15 -9 16 -63 1 -71 -6 -4 -8 -14 -4 -23 3 -8 -4 -25 -15 -37 -15
-16 -18 -25 -10 -30 6 -4 8 -15 5 -25 -3 -10 6 -39 20 -65 13 -26 22 -52 18
-58 -4 -6 -10 -1 -14 11 -9 23 -34 28 -58 13 -12 -8 -13 -12 -1 -25 7 -9 10
-19 7 -23 -4 -3 -2 -12 4 -19 17 -20 3 -44 -26 -44 -14 0 -25 5 -25 10 0 6 -7
10 -15 10 -9 0 -18 12 -21 30 -4 17 -13 30 -21 30 -10 0 -12 6 -7 23 3 12 11
24 15 25 5 2 9 10 9 18 0 9 5 12 11 9 5 -4 19 1 29 10 16 15 22 15 35 5 13
-11 15 -9 15 13 0 16 -11 33 -35 51 -32 25 -40 25 -36 3 1 -4 -6 -16 -15 -25
-11 -10 -13 -17 -5 -20 6 -2 11 -8 11 -13 0 -4 -6 -6 -14 -3 -9 3 -17 -3 -21
-16 -5 -17 -10 -19 -21 -9 -16 13 -19 36 -4 41 5 2 11 20 14 40 5 45 13 58 31
58 8 0 17 5 21 12 5 8 2 9 -9 5 -19 -7 -21 3 -8 47 5 17 17 56 25 88 9 31 23
59 31 62 8 3 15 16 15 28 0 13 7 33 15 45 8 12 17 35 19 52 4 34 24 64 37 55
5 -3 9 -20 9 -39z m2773 -32 c-4 -10 -9 -11 -16 -4 -5 5 -7 18 -3 28 6 14 9
15 16 4 4 -8 6 -21 3 -28z m-2789 -89 c3 -8 2 -12 -4 -9 -6 3 -10 10 -10 16 0
14 7 11 14 -7z m1476 -13 c0 -5 -6 -11 -12 -14 -10 -3 -8 -9 5 -24 25 -28 21
-38 -15 -38 -35 0 -49 -20 -19 -28 11 -3 22 0 24 6 2 8 10 6 21 -6 21 -21 38
-22 34 -3 -4 19 -1 19 46 11 42 -8 56 2 56 43 0 14 -6 22 -17 23 -15 0 -15 2
2 9 15 6 24 3 35 -12 10 -12 22 -17 33 -12 11 4 19 0 23 -10 5 -13 8 -13 20
-1 8 7 14 18 14 24 0 6 7 11 15 11 19 0 16 -12 -38 -180 -39 -122 -105 -288
-153 -382 l-24 -48 -83 52 c-108 68 -161 111 -185 151 -28 45 -36 116 -20 182
10 45 22 64 60 101 36 34 53 44 68 39 23 -7 26 5 8 24 -11 10 -4 20 32 51 44
38 70 50 70 31z m-1650 -425 c0 -7 7 -19 15 -26 21 -17 19 -42 -2 -38 -10 2
-18 11 -18 20 0 9 -4 20 -8 24 -10 11 -9 34 3 34 6 0 10 -6 10 -14z m185 -26
c14 -16 15 -20 4 -20 -16 0 -39 19 -39 32 0 14 16 9 35 -12z m-565 -135 c0
-14 -4 -25 -10 -25 -11 0 -14 33 -3 43 11 11 13 8 13 -18z m2216 -80 c23 -25
45 -59 49 -75 4 -16 11 -32 16 -35 5 -4 9 -16 9 -27 0 -18 -10 -11 -57 35 -32
31 -66 63 -77 70 -14 11 -17 20 -11 45 3 18 11 32 17 32 6 0 30 -20 54 -45z
m304 -336 c0 -8 4 -8 13 -1 7 6 23 8 36 5 27 -7 26 -10 -14 -155 -16 -54 -31
-98 -36 -98 -4 0 -15 33 -24 73 -9 39 -23 82 -31 95 -16 24 -13 34 19 70 22
24 37 28 37 11z m-2900 -45 c0 -8 -5 -12 -10 -9 -6 4 -8 11 -5 16 9 14 15 11
15 -7z m-145 -114 c11 -17 -5 -32 -21 -19 -7 6 -11 15 -8 20 7 12 21 11 29 -1z
m425 -225 c0 -17 -2 -18 -24 -9 -23 9 -20 24 4 24 11 0 20 -7 20 -15z m-90
-24 c0 -32 -21 -61 -45 -61 -28 0 -31 5 -12 25 6 8 18 21 25 30 14 17 32 20
32 6z m-915 -11 c3 -5 1 -10 -4 -10 -6 0 -11 5 -11 10 0 6 2 10 4 10 3 0 8 -4
11 -10z m155 -18 c0 -14 -11 -21 -26 -15 -21 8 -17 23 6 23 11 0 20 -4 20 -8z
m850 -30 c0 -9 -40 -35 -46 -29 -3 2 -2 12 2 21 6 16 44 23 44 8z m-850 -15
c0 -21 -35 -48 -65 -50 -23 -2 -28 2 -30 21 -2 26 22 42 34 23 5 -8 12 -7 27
4 24 18 34 19 34 2z m700 -27 c0 -5 -4 -10 -9 -10 -6 0 -13 5 -16 10 -3 6 1
10 9 10 9 0 16 -4 16 -10z m50 -55 c9 -11 9 -15 1 -15 -7 0 -9 -4 -6 -10 3 -5
-3 -10 -14 -10 -23 0 -36 16 -21 25 6 4 8 11 5 16 -10 15 22 10 35 -6z m-820
-21 c0 -14 -21 -19 -33 -7 -9 9 13 34 24 27 5 -3 9 -12 9 -20z m380 16 c0 -5
-7 -10 -16 -10 -8 0 -12 5 -9 10 3 6 10 10 16 10 5 0 9 -4 9 -10z m120 -36 c0
-25 -35 -12 -38 14 -3 21 -1 22 17 12 12 -6 21 -18 21 -26z m190 6 c0 -5 -4
-10 -10 -10 -5 0 -10 5 -10 10 0 6 5 10 10 10 6 0 10 -4 10 -10z m-1327 -277
c-3 -8 -13 -12 -22 -11 -12 3 -15 13 -13 38 4 60 12 68 27 26 7 -21 11 -45 8
-53z m-431 37 c-1 -7 5 -18 14 -25 10 -7 15 -19 11 -29 -7 -18 13 -22 30 -5
17 17 62 0 69 -27 3 -13 12 -28 20 -35 16 -13 19 -49 5 -49 -6 0 -12 4 -15 9
-9 15 -49 0 -78 -30 -27 -26 -68 -31 -68 -7 0 5 -10 6 -22 3 -17 -6 -20 -4
-15 10 4 9 7 20 7 24 0 5 11 6 25 3 14 -2 32 1 40 8 14 12 13 16 -10 40 -16
17 -23 33 -19 43 3 9 -3 29 -15 46 -28 39 -27 53 2 42 12 -5 21 -15 19 -21z
m528 -5 c-7 -8 -17 -12 -22 -9 -5 3 -1 15 9 26 20 22 32 6 13 -17z m-40 -19
c0 -3 -4 -8 -10 -11 -5 -3 -10 -1 -10 4 0 6 5 11 10 11 6 0 10 -2 10 -4z
m-286 -21 c15 -12 17 -18 8 -27 -9 -9 -16 -7 -32 7 -32 29 -11 47 24 20z m282
-32 c-10 -10 -19 5 -10 18 6 11 8 11 12 0 2 -7 1 -15 -2 -18z m464 13 c0 -11
-19 -15 -25 -6 -3 5 1 10 9 10 9 0 16 -2 16 -4z m-495 -16 c8 -13 -17 -23 -47
-18 l-23 5 25 11 c32 14 37 14 45 2z m-150 -39 c8 -15 -35 -35 -47 -23 -6 6
-7 15 -4 21 9 14 43 14 51 2z m-374 -24 c-13 -13 -26 -3 -16 12 3 6 11 8 17 5
6 -4 6 -10 -1 -17z m757 4 c3 -8 -1 -12 -9 -9 -7 2 -15 10 -17 17 -3 8 1 12 9
9 7 -2 15 -10 17 -17z m-748 -41 c0 -5 -2 -10 -4 -10 -3 0 -8 5 -11 10 -3 6
-1 10 4 10 6 0 11 -4 11 -10z m693 -15 c4 -8 3 -16 -1 -18 -11 -6 -53 19 -45
26 12 12 41 7 46 -8z m-553 -34 c0 -23 -16 -36 -25 -21 -9 14 1 40 15 40 5 0
10 -9 10 -19z m668 -43 c-5 -16 -48 -24 -48 -10 0 11 17 20 38 21 8 1 12 -5
10 -11z m-911 -63 c-16 -16 -37 -8 -37 15 0 24 22 32 37 13 9 -12 9 -18 0 -28z
m17 -44 c7 -11 -22 -23 -35 -15 -5 3 -7 10 -4 15 8 12 32 12 39 0z m576 -1 c0
-5 -4 -10 -10 -10 -5 0 -10 5 -10 10 0 6 5 10 10 10 6 0 10 -4 10 -10z m-720
-20 c0 -5 -5 -10 -11 -10 -5 0 -7 5 -4 10 3 6 8 10 11 10 2 0 4 -4 4 -10z
m-277 -81 c22 -12 37 -28 37 -41 0 -14 -59 17 -63 34 -6 21 -3 22 26 7z m183
-32 c8 3 14 0 14 -6 0 -6 -9 -11 -20 -11 -13 0 -20 6 -19 18 0 9 3 12 5 5 3
-7 12 -9 20 -6z m-216 -17 c0 -16 -21 -22 -36 -9 -11 9 -12 14 -3 20 14 8 39
1 39 -11z m-230 -41 c0 -10 -4 -19 -10 -19 -5 0 -10 12 -10 26 0 14 4 23 10
19 6 -3 10 -15 10 -26z m70 -64 c10 -11 8 -19 -8 -39 l-19 -25 -23 24 c-13 14
-22 27 -19 28 8 8 44 26 50 27 4 0 12 -7 19 -15z m-83 -177 c-16 -10 -21 -2
-13 19 6 15 9 15 16 3 6 -9 5 -17 -3 -22z m13 -28 c0 -5 -9 -10 -21 -10 -11 0
-17 5 -14 10 3 6 13 10 21 10 8 0 14 -4 14 -10z m497 -34 c-6 -17 -47 -20 -47
-3 0 9 6 17 13 20 18 6 38 -4 34 -17z m-790 -81 c-2 -5 -10 -10 -18 -10 -8 0
-14 -6 -14 -13 0 -18 -56 -63 -69 -55 -5 4 1 10 13 15 17 6 21 13 16 28 -4 12
1 29 11 43 15 20 22 22 41 13 13 -6 21 -15 20 -21z"/>
<path d="M4522 7034 c14 -14 21 -15 30 -6 8 8 9 12 1 12 -6 0 -20 3 -30 6 -17
7 -17 6 -1 -12z"/>
<path d="M6000 7085 c0 -8 5 -15 10 -15 6 0 10 7 10 15 0 8 -4 15 -10 15 -5 0
-10 -7 -10 -15z"/>
<path d="M6040 7081 c0 -6 5 -13 10 -16 6 -3 10 1 10 9 0 9 -4 16 -10 16 -5 0
-10 -4 -10 -9z"/>
<path d="M4023 7689 c-18 -18 -3 -39 28 -39 34 0 38 -20 10 -47 -16 -15 -17
-21 -7 -36 12 -15 15 -15 26 -2 7 8 16 13 20 10 5 -3 11 -1 15 5 3 5 -1 10 -9
10 -12 0 -14 11 -9 58 5 47 3 55 -8 45 -16 -16 -46 -17 -51 -3 -2 7 -7 7 -15
-1z"/>
<path d="M4131 7676 c-8 -9 -8 -16 -2 -20 6 -4 15 3 21 14 12 23 -2 27 -19 6z"/>
<path d="M3961 6783 c-5 -10 -7 -30 -4 -45 l5 -28 29 21 c35 25 35 29 4 52
-23 17 -25 17 -34 0z"/>
<path d="M2570 6650 c0 -5 5 -10 10 -10 6 0 10 5 10 10 0 6 -4 10 -10 10 -5 0
-10 -4 -10 -10z"/>
<path d="M2530 6629 c0 -5 5 -7 10 -4 6 3 10 8 10 11 0 2 -4 4 -10 4 -5 0 -10
-5 -10 -11z"/>
<path d="M3535 6608 c-21 -35 -27 -65 -15 -73 10 -6 22 24 15 35 -3 5 4 14 15
20 11 6 20 20 20 30 0 29 -13 24 -35 -12z"/>
<path d="M3691 6631 c-10 -6 -10 -10 -1 -16 13 -8 24 -1 19 14 -3 6 -10 7 -18
2z"/>
<path d="M2480 6545 c0 -8 4 -15 9 -15 5 0 14 7 21 15 10 13 9 15 -9 15 -12 0
-21 -6 -21 -15z"/>
<path d="M3802 6553 c-13 -3 -21 -10 -19 -16 6 -18 38 -21 48 -5 11 16 11 28
2 27 -5 -1 -18 -4 -31 -6z"/>
<path d="M2620 6524 c-8 -21 -8 -29 2 -36 16 -10 20 -10 37 1 12 7 10 14 -7
36 l-22 27 -10 -28z"/>
<path d="M3720 6540 c0 -5 7 -10 15 -10 8 0 15 5 15 10 0 6 -7 10 -15 10 -8 0
-15 -4 -15 -10z"/>
<path d="M3930 6495 c-14 -16 -5 -36 13 -29 7 2 18 13 25 24 10 17 10 20 -7
20 -10 0 -24 -7 -31 -15z"/>
<path d="M2676 6458 c9 -31 11 -33 30 -17 14 12 14 14 -2 26 -26 19 -36 16
-28 -9z"/>
<path d="M3567 6448 c-14 -18 -25 -33 -24 -34 7 -7 66 -11 62 -4 -3 5 3 13 12
19 14 9 15 12 5 19 -8 5 -13 13 -12 18 4 22 -20 12 -43 -18z"/>
<path d="M2651 6447 c-16 -20 -48 -22 -53 -5 -2 6 -10 8 -16 4 -16 -10 -15
-27 1 -20 8 3 20 -2 27 -10 7 -9 17 -13 22 -10 5 3 18 -2 28 -11 20 -18 39 -3
22 18 -5 7 -11 21 -13 31 -4 18 -5 18 -18 3z"/>
<path d="M3790 6452 c0 -1 9 -12 20 -24 26 -28 25 -32 -4 -56 l-25 -19 21 -18
c21 -17 22 -17 35 1 8 11 11 28 8 39 -3 11 -8 34 -12 52 -4 23 -10 31 -24 30
-11 -1 -19 -3 -19 -5z"/>
<path d="M3885 6430 c3 -5 10 -10 16 -10 5 0 9 5 9 10 0 6 -7 10 -16 10 -8 0
-12 -4 -9 -10z"/>
<path d="M2705 6390 c-4 -6 -1 -18 7 -27 11 -14 11 -16 -3 -11 -9 3 -22 2 -30
-3 -12 -8 -12 -10 0 -18 16 -10 6 -31 -14 -31 -21 0 -27 -17 -15 -39 12 -24
36 -18 43 10 3 10 20 26 39 34 18 8 25 14 16 15 -26 0 -22 15 10 39 23 17 25
22 12 31 -20 13 -57 13 -65 0z"/>
<path d="M3606 6365 c4 -15 2 -25 -5 -26 -6 -1 -15 -2 -21 -3 -10 -1 -39 -36
-40 -48 0 -10 33 2 45 17 6 6 20 17 32 24 20 10 21 15 11 36 -15 32 -30 32
-22 0z"/>
<path d="M2730 6262 c0 -6 5 -14 10 -17 11 -7 13 -48 4 -82 -5 -18 -10 -21
-24 -13 -20 11 -34 2 -21 -14 5 -6 11 -15 13 -21 1 -5 12 -9 22 -7 11 1 22 -2
26 -8 3 -5 18 -11 33 -12 15 -1 29 -8 32 -15 3 -10 10 -8 26 8 19 19 20 24 8
33 -8 6 -20 23 -26 39 -7 15 -17 27 -23 27 -15 0 -12 21 6 41 21 23 10 40 -24
38 -15 -1 -35 2 -44 6 -11 4 -18 3 -18 -3z"/>
<path d="M3510 6239 c0 -5 5 -7 10 -4 6 3 10 8 10 11 0 2 -4 4 -10 4 -5 0 -10
-5 -10 -11z"/>
<path d="M3454 6215 c21 -16 32 -13 21 4 -3 6 -14 11 -23 11 -15 -1 -15 -2 2
-15z"/>
<path d="M3496 6175 c4 -8 8 -15 10 -15 2 0 4 7 4 15 0 8 -4 15 -10 15 -5 0
-7 -7 -4 -15z"/>
<path d="M2711 6044 c-6 -14 -9 -30 -5 -35 3 -6 0 -16 -6 -24 -9 -11 -9 -19
-2 -27 6 -7 11 -17 12 -23 1 -5 6 -20 11 -33 5 -13 9 -26 9 -28 0 -11 29 -34
42 -34 29 0 63 65 51 96 -4 11 -9 12 -18 4 -10 -8 -15 -8 -20 1 -4 6 -2 15 5
19 9 6 9 9 0 15 -6 4 -9 17 -6 30 5 18 1 24 -19 29 -14 4 -25 13 -25 21 0 24
-16 18 -29 -11z"/>
<path d="M4167 5874 c-7 -7 14 -44 26 -44 12 0 4 43 -9 47 -5 2 -13 1 -17 -3z"/>
<path d="M4054 5829 c-7 -12 15 -31 28 -23 4 3 8 12 8 20 0 17 -26 19 -36 3z"/>
<path d="M4132 5804 c-12 -8 -22 -21 -22 -28 0 -8 -7 -19 -15 -26 -8 -7 -15
-17 -15 -23 0 -6 3 -7 7 -4 3 4 13 1 22 -7 27 -24 91 -56 91 -46 0 6 6 10 14
10 8 0 17 7 20 16 9 24 8 26 -14 19 -16 -5 -20 -2 -20 19 0 15 -5 25 -12 24
-7 -2 -13 7 -14 20 -2 35 -17 44 -42 26z"/>
<path d="M4287 5754 c-8 -8 1 -24 14 -24 5 0 9 7 9 15 0 15 -12 20 -23 9z"/>
<path d="M4401 5737 c-11 -14 -9 -20 8 -38 22 -24 25 -16 12 30 -6 21 -8 22
-20 8z"/>
<path d="M4444 5689 c-9 -16 25 -47 46 -42 18 5 35 31 26 41 -11 10 -65 11
-72 1z"/>
<path d="M4320 5680 c0 -5 5 -10 11 -10 5 0 7 5 4 10 -3 6 -8 10 -11 10 -2 0
-4 -4 -4 -10z"/>
<path d="M4400 5656 c0 -9 5 -16 10 -16 6 0 10 4 10 9 0 6 -4 13 -10 16 -5 3
-10 -1 -10 -9z"/>
<path d="M4267 5653 c-4 -3 -7 -11 -7 -17 0 -6 5 -5 12 2 6 6 9 14 7 17 -3 3
-9 2 -12 -2z"/>
<path d="M4317 5643 c-4 -3 -7 -11 -7 -17 0 -6 5 -5 12 2 6 6 9 14 7 17 -3 3
-9 2 -12 -2z"/>
<path d="M4431 5584 c0 -11 3 -14 6 -6 3 7 2 16 -1 19 -3 4 -6 -2 -5 -13z"/>
<path d="M3835 5569 l-30 -6 28 -8 c28 -8 42 -3 36 12 -2 5 -17 6 -34 2z"/>
<path d="M2420 5540 c0 -18 3 -19 21 -9 17 9 19 13 8 20 -22 14 -29 11 -29
-11z"/>
<path d="M3800 5441 c0 -6 5 -13 10 -16 6 -3 10 1 10 9 0 9 -4 16 -10 16 -5 0
-10 -4 -10 -9z"/>
<path d="M3190 5400 c0 -5 10 -15 23 -21 22 -12 22 -12 3 10 -21 23 -26 26
-26 11z"/>
<path d="M3790 5366 c0 -7 13 -28 29 -46 l29 -33 7 24 c4 13 12 27 18 30 5 4
7 15 3 25 -6 16 -7 16 -21 -2 -14 -18 -16 -18 -29 -1 -16 20 -36 22 -36 3z"/>
<path d="M3162 5324 c4 -21 18 -27 38 -14 17 10 14 15 -18 25 -19 6 -23 4 -20
-11z"/>
<path d="M3070 5312 c0 -12 19 -26 26 -19 2 2 -2 10 -11 17 -9 8 -15 8 -15 2z"/>
<path d="M3866 5265 c4 -8 10 -12 15 -9 11 6 2 24 -11 24 -5 0 -7 -7 -4 -15z"/>
<path d="M3760 5255 c0 -2 9 -9 20 -15 16 -9 18 -8 14 5 -5 13 -34 22 -34 10z"/>
<path d="M3020 5240 c0 -5 7 -10 16 -10 8 0 12 5 9 10 -3 6 -10 10 -16 10 -5
0 -9 -4 -9 -10z"/>
<path d="M3728 5204 c-9 -8 3 -44 14 -44 5 0 7 4 3 9 -3 5 -1 12 5 16 6 4 8
11 5 16 -7 10 -19 12 -27 3z"/>
<path d="M2947 5173 c-24 -6 -15 -29 10 -25 11 1 26 -4 32 -12 12 -14 15 -14
28 0 30 29 -13 52 -70 37z"/>
<path d="M1270 5030 c0 -5 -11 -12 -24 -16 -22 -5 -24 -8 -13 -27 23 -42 47
-49 47 -13 0 13 7 29 15 36 21 17 19 30 -5 30 -11 0 -20 -4 -20 -10z"/>
<path d="M636 4892 c-3 -5 3 -17 14 -27 17 -15 20 -16 20 -3 0 19 -26 42 -34
30z"/>
<path d="M977 4878 c-4 -12 -4 -33 0 -46 5 -20 10 -22 32 -17 36 9 36 10 17
50 -19 40 -41 46 -49 13z"/>
<path d="M900 4880 c0 -21 16 -44 23 -33 4 6 0 19 -8 29 -11 15 -14 16 -15 4z"/>
<path d="M760 4833 c0 -14 19 -38 25 -32 8 8 -5 39 -16 39 -5 0 -9 -3 -9 -7z"/>
<path d="M605 4779 c-4 -6 -3 -15 3 -21 6 -6 11 -4 15 6 7 18 -9 31 -18 15z"/>
<path d="M530 4749 c0 -11 5 -17 10 -14 6 3 10 13 10 21 0 8 -4 14 -10 14 -5
0 -10 -9 -10 -21z"/>
<path d="M2464 4642 c-16 -11 -35 -50 -27 -55 19 -11 53 13 53 38 0 26 -7 30
-26 17z"/>
<path d="M2120 4620 c0 -5 -10 -10 -21 -10 -19 0 -20 -2 -8 -16 11 -14 9 -19
-11 -34 -14 -10 -21 -22 -17 -26 11 -11 70 -14 82 -4 5 4 24 6 41 3 25 -4 31
-9 27 -24 -7 -26 38 -26 55 1 7 11 18 17 27 14 23 -9 19 55 -5 84 -19 23 -20
23 -50 5 -18 -10 -28 -23 -25 -31 10 -26 -30 -7 -43 21 -12 26 -52 39 -52 17z"/>
<path d="M867 4585 c-8 -20 -4 -29 11 -24 5 2 6 13 2 23 -6 19 -7 19 -13 1z"/>
<path d="M634 4579 c-8 -14 16 -61 30 -56 6 2 10 11 8 20 -1 8 2 18 8 22 5 3
10 10 10 16 0 13 -47 11 -56 -2z"/>
<path d="M2630 4576 c0 -8 7 -16 15 -20 17 -6 18 -4 9 18 -8 20 -24 21 -24 2z"/>
<path d="M1937 4530 c-26 -16 -27 -19 -12 -28 17 -9 17 -11 1 -33 -27 -40 -21
-52 23 -46 30 4 41 1 45 -10 5 -12 9 -13 21 -3 20 17 19 36 -5 60 -11 11 -20
28 -20 39 0 32 -22 40 -53 21z"/>
<path d="M2626 4513 c-4 -9 -2 -21 4 -27 7 -7 10 -2 10 17 0 31 -5 34 -14 10z"/>
<path d="M872 4511 c-10 -6 -10 -10 3 -21 8 -7 15 -10 15 -7 0 3 3 12 6 21 7
17 -3 20 -24 7z"/>
<path d="M2667 4467 c-3 -8 1 -21 9 -27 15 -13 17 -6 5 24 -6 17 -8 17 -14 3z"/>
<path d="M1331 4351 c-10 -6 -10 -10 -1 -16 13 -8 24 -1 19 14 -3 6 -10 7 -18
2z"/>
<path d="M425 4159 c-4 -6 -5 -12 -2 -15 2 -3 7 2 10 11 7 17 1 20 -8 4z"/>
</g>
</svg>
