<?xml version="1.0" encoding="iso-8859-1"?>
<!-- Uploaded to: SVG Repo, www.svgrepo.com, Generator: SVG Repo Mixer Tools -->
<!DOCTYPE svg PUBLIC "-//W3C//DTD SVG 1.1//EN" "http://www.w3.org/Graphics/SVG/1.1/DTD/svg11.dtd">
<svg fill="#000000" height="800px" width="800px" version="1.1" id="Capa_1" xmlns="http://www.w3.org/2000/svg" xmlns:xlink="http://www.w3.org/1999/xlink" 
	 viewBox="0 0 491.711 491.711" xml:space="preserve">
<path d="M446.601,236.41c-16.945-26.313-48.371-75.063-48.371-75.063C381.058,85.73,336.949,32,283.187,10.902
	c-35.742-14.024-97.551-14.33-135.656-2.004C55.789,38.556,17.508,136.742,49.676,236.234c8.703,26.922,22.543,50.559,39.73,70.344
	L57.512,452.937c-2.063,9.453,0.273,19.328,6.34,26.859c6.066,7.539,15.223,11.914,24.894,11.914h109.426
	c16.316,0,30.012-12.285,31.781-28.508l7.273-66.805c7.387,1.566,14.887,2.621,22.578,2.621
	c64.949,0,119.934-41.508,138.297-121.383l34.035,1.418c9.254-1.617,16.863-8.152,19.871-17.035
	C455.035,253.136,452.332,245.308,446.601,236.41z M222.148,322.922c-19.422,0-32.602-14.289-32.602-33.336
	c0-19.414,13.535-33.336,32.602-33.336c19.762,0,32.605,13.922,32.957,33.336C255.105,308.633,241.91,322.922,222.148,322.922z
	 M266.469,186.652c-13.566,15.016-19.055,29.305-18.699,45.781c0,3.652-2.945,6.598-6.582,6.598h-35.789
	c-3.543,0-6.438-2.797-6.582-6.332l-0.113-3.184c-1.109-18.691,5.102-37.738,21.598-57.523
	c11.715-13.918,21.223-25.641,21.223-38.09c0-12.824-8.398-21.258-26.711-21.983c-5.586,0-11.715,0.934-17.637,2.592
	c-10.879,3.049-22.223-3.105-25.586-13.912c-3.383-10.83,2.539-22.344,13.305-25.924c11.844-3.936,26.328-6.711,42.355-6.711
	c48.375,0,70.324,26.738,70.324,57.137C297.574,152.949,280.371,171.261,266.469,186.652z"/>
</svg>